<svg xmlns="http://www.w3.org/2000/svg" viewBox="0 0 182 60">
<path fill-rule="evenodd" clip-rule="evenodd" d="M46.5288 30.0002C46.5288 36.0783 41.7632 39.9857 35.698 39.9857H20.4482V20.0146H35.698C41.7632 20.0146 46.5288 23.922 46.5288 30.0002ZM39.2937 30.0002C39.2937 27.5689 37.4309 25.5719 34.0517 25.5719H27.7265V34.4286H34.0517C37.301 34.4286 39.2937 32.4314 39.2937 30.0002Z" fill="white"/>
<path d="M55.8436 31.6933H68.9272V28.307H55.8436V25.5719H68.9272V20.0146H48.522V39.9857H68.9272V34.4286H55.8436V31.6933Z" fill="white"/>
<path d="M98.8633 25.5719H106.185V20.0146H99.3399H98.8633H90.7619L79.0647 36.0348V20.0146H71.7432V39.9857H76.2055H79.0647H84.8267L98.8633 20.6659V25.5719Z" fill="white"/>
<path d="M124.25 44.3703H122.344L121.218 39.421C121.044 38.8566 120.828 38.3355 120.481 37.858L120.048 37.2937C119.961 37.12 119.745 37.0331 119.571 37.0331H119.355V38.5527V44.3703H98.3865C92.4946 44.3703 92.148 39.7248 94.0109 36.5121L95.0073 34.9925C95.0506 34.9057 95.0506 34.8188 95.0073 34.732C94.964 34.5583 94.7041 34.5151 94.5741 34.6887L93.1444 36.6424C89.5486 41.5484 90.545 47.0186 97.8233 47.0186H119.355V52.8362V54.3992H119.571C119.745 54.3992 119.961 54.3124 120.048 54.1387L120.481 53.5744C120.828 53.0968 121.044 52.5758 121.218 52.0114L122.344 47.0186H124.337C125.117 47.0186 125.723 46.3673 125.637 45.5858C125.593 44.8912 124.944 44.3703 124.25 44.3703Z" fill="white"/>
<path d="M98.8633 33.4733V39.9856H106.185V28.1768H103.975C100.77 28.1768 98.8633 29.8698 98.8633 33.4733Z" fill="white"/>
<path d="M128.626 32.8222C131.529 31.867 133.045 29.7831 133.045 26.7875C133.045 22.3157 129.796 20.0146 123.557 20.0146H109.001V25.5719H124.337C125.074 25.5719 125.637 26.1797 125.637 26.8744C125.637 27.6124 125.074 28.1768 124.337 28.1768H109.001V39.9857H116.323V33.5168H120.698L125.68 39.9857H134.215L128.626 32.8222Z" fill="white"/>
<path fill-rule="evenodd" clip-rule="evenodd" d="M161.551 30.0002C161.551 36.0783 156.786 39.9857 150.721 39.9857H145.435C139.37 39.9857 134.604 36.0783 134.604 30.0002C134.604 23.922 139.37 20.0146 145.435 20.0146H150.721C156.786 20.0146 161.551 23.922 161.551 30.0002ZM154.36 30.0002C154.36 27.5689 152.454 25.5719 149.074 25.5719H147.082C143.832 25.5719 141.84 27.5689 141.84 30.0002C141.84 32.4314 143.746 34.4286 147.082 34.4286H149.074C152.324 34.4286 154.36 32.4314 154.36 30.0002Z" fill="white"/>
</svg>