<svg width="119" height="56" viewBox="0 0 119 56" fill="none" xmlns="http://www.w3.org/2000/svg">
<path d="M28 12.57L43.43 21.57V34.43L28 43.43L12.57 34.43V21.57L28 12.57Z" stroke="white" stroke-width="1.2"/>
<path d="M28 17.71L38.29 23.5V32.5L28 38.29L17.71 32.5V23.5L28 17.71Z" stroke="white" stroke-width="1.2"/>
<path d="M28 24.14L33.14 27.36V31.21L28 34.43L22.86 31.21V27.36L28 24.14Z" fill="white"/>
<path d="M28 12.57V19" stroke="white" stroke-width="1.2"/>
<path d="M28 38.29V43.43" stroke="white" stroke-width="1.2"/>
<path d="M68.494 17.154C68.494 18.018 68.188 18.714 67.576 19.242C66.964 19.77 66.184 20.1 65.236 20.232V20.286C66.412 20.406 67.312 20.736 67.936 21.276C68.572 21.804 68.89 22.494 68.89 23.346C68.89 24.09 68.686 24.756 68.278 25.344C67.87 25.92 67.264 26.37 66.46 26.694C65.656 27.018 64.66 27.18 63.472 27.18C62.5 27.18 61.636 27.12 60.88 27C60.136 26.88 59.488 26.706 58.936 26.478V24.192C59.308 24.372 59.728 24.528 60.196 24.66C60.664 24.78 61.138 24.876 61.618 24.948C62.098 25.008 62.542 25.038 62.95 25.038C64.09 25.038 64.912 24.876 65.416 24.552C65.932 24.216 66.19 23.748 66.19 23.148C66.19 22.536 65.818 22.092 65.074 21.816C64.33 21.528 63.328 21.384 62.068 21.384H60.862V19.26H61.942C62.962 19.26 63.754 19.194 64.318 19.062C64.882 18.93 65.278 18.738 65.506 18.486C65.734 18.234 65.848 17.934 65.848 17.586C65.848 17.142 65.65 16.794 65.254 16.542C64.87 16.278 64.288 16.146 63.508 16.146C62.848 16.146 62.224 16.242 61.636 16.434C61.06 16.626 60.52 16.878 60.016 17.19L58.828 15.372C59.272 15.084 59.74 14.838 60.232 14.634C60.736 14.418 61.288 14.256 61.888 14.148C62.488 14.028 63.154 13.968 63.886 13.968C64.858 13.968 65.686 14.106 66.37 14.382C67.054 14.658 67.576 15.036 67.936 15.516C68.308 15.984 68.494 16.53 68.494 17.154ZM77.6279 23.238C77.2679 24.054 76.8839 24.762 76.4759 25.362C76.0799 25.95 75.5699 26.4 74.9459 26.712C74.3219 27.024 73.5059 27.18 72.4979 27.18C72.1859 27.18 71.8439 27.156 71.4719 27.108C71.0999 27.06 70.7579 26.994 70.4459 26.91V24.57C70.7339 24.69 71.0519 24.774 71.3999 24.822C71.7479 24.87 72.0719 24.894 72.3719 24.894C72.7679 24.894 73.0859 24.828 73.3259 24.696C73.5779 24.564 73.7759 24.384 73.9199 24.156C74.0759 23.916 74.2019 23.658 74.2979 23.382L69.8519 14.148H72.7319L75.1259 19.71C75.1859 19.83 75.2579 19.986 75.3419 20.178C75.4259 20.37 75.5099 20.568 75.5939 20.772C75.6779 20.976 75.7439 21.156 75.7919 21.312H75.8819C75.9299 21.168 75.9899 20.994 76.0619 20.79C76.1459 20.574 76.2299 20.358 76.3139 20.142C76.4099 19.914 76.4939 19.716 76.5659 19.548L78.7979 14.148H81.6059L77.6279 23.238ZM94.7156 20.556C94.7156 21.552 94.5896 22.458 94.3376 23.274C94.0976 24.078 93.7256 24.774 93.2216 25.362C92.7296 25.95 92.0936 26.4 91.3136 26.712C90.5456 27.024 89.6396 27.18 88.5956 27.18C87.5516 27.18 86.6396 27.024 85.8596 26.712C85.0916 26.388 84.4556 25.938 83.9516 25.362C83.4596 24.774 83.0876 24.072 82.8356 23.256C82.5956 22.44 82.4756 21.534 82.4756 20.538C82.4756 19.206 82.6916 18.048 83.1236 17.064C83.5676 16.08 84.2396 15.318 85.1396 14.778C86.0516 14.226 87.2096 13.95 88.6136 13.95C90.0056 13.95 91.1516 14.226 92.0516 14.778C92.9516 15.318 93.6176 16.086 94.0496 17.082C94.4936 18.066 94.7156 19.224 94.7156 20.556ZM85.3376 20.556C85.3376 21.456 85.4516 22.23 85.6796 22.878C85.9076 23.526 86.2616 24.024 86.7416 24.372C87.2216 24.72 87.8396 24.894 88.5956 24.894C89.3756 24.894 89.9996 24.72 90.4676 24.372C90.9476 24.024 91.2956 23.526 91.5116 22.878C91.7396 22.23 91.8536 21.456 91.8536 20.556C91.8536 19.2 91.6016 18.138 91.0976 17.37C90.5936 16.602 89.7656 16.218 88.6136 16.218C87.8456 16.218 87.2216 16.392 86.7416 16.74C86.2616 17.088 85.9076 17.586 85.6796 18.234C85.4516 18.882 85.3376 19.656 85.3376 20.556ZM107.854 27H104.758L100.096 20.484V27H97.3778V14.148H100.096V20.376L104.704 14.148H107.602L102.922 20.322L107.854 27Z" fill="white"/>
<path d="M61.55 38.085C61.176 38.085 60.853 38.0142 60.581 37.8725C60.3147 37.7308 60.1078 37.5268 59.9605 37.2605C59.8188 36.9885 59.748 36.6683 59.748 36.3V33.495C59.748 33.121 59.8188 32.8008 59.9605 32.5345C60.1078 32.2682 60.3147 32.0642 60.581 31.9225C60.853 31.7808 61.176 31.71 61.55 31.71C61.924 31.71 62.2442 31.7808 62.5105 31.9225C62.7825 32.0642 62.9893 32.2682 63.131 32.5345C63.2783 32.8008 63.352 33.1182 63.352 33.4865V36.3C63.352 36.6683 63.2783 36.9885 63.131 37.2605C62.9893 37.5268 62.7825 37.7308 62.5105 37.8725C62.2442 38.0142 61.924 38.085 61.55 38.085ZM61.55 37.3965C61.8843 37.3965 62.1393 37.303 62.315 37.116C62.4963 36.9233 62.587 36.6513 62.587 36.3V33.495C62.587 33.1437 62.4963 32.8745 62.315 32.6875C62.1393 32.4948 61.8843 32.3985 61.55 32.3985C61.2213 32.3985 60.9663 32.4948 60.785 32.6875C60.6037 32.8745 60.513 33.1437 60.513 33.495V36.3C60.513 36.6513 60.6037 36.9233 60.785 37.116C60.9663 37.303 61.2213 37.3965 61.55 37.3965ZM64.8957 38V31.795H68.3467V32.492H65.6607V34.362H66.6892C67.0858 34.362 67.4258 34.4385 67.7092 34.5915C67.9925 34.7388 68.2107 34.9485 68.3637 35.2205C68.5223 35.4925 68.6017 35.8127 68.6017 36.181C68.6017 36.5493 68.5223 36.8695 68.3637 37.1415C68.2107 37.4135 67.9925 37.626 67.7092 37.779C67.4258 37.9263 67.0858 38 66.6892 38H64.8957ZM65.6607 37.303H66.6892C67.0405 37.303 67.3153 37.2038 67.5137 37.0055C67.712 36.8015 67.8112 36.5267 67.8112 36.181C67.8112 35.8297 67.712 35.5548 67.5137 35.3565C67.3153 35.1582 67.0405 35.059 66.6892 35.059H65.6607V37.303ZM71.7434 38.085C71.3694 38.085 71.0464 38.0142 70.7744 37.8725C70.508 37.7308 70.3012 37.5268 70.1539 37.2605C70.0122 36.9885 69.9414 36.6683 69.9414 36.3V33.495C69.9414 33.121 70.0122 32.8008 70.1539 32.5345C70.3012 32.2682 70.508 32.0642 70.7744 31.9225C71.0464 31.7808 71.3694 31.71 71.7434 31.71C72.1174 31.71 72.4375 31.7808 72.7039 31.9225C72.9759 32.0642 73.1827 32.2682 73.3244 32.5345C73.4717 32.8008 73.5454 33.1182 73.5454 33.4865V36.3C73.5454 36.6683 73.4717 36.9885 73.3244 37.2605C73.1827 37.5268 72.9759 37.7308 72.7039 37.8725C72.4375 38.0142 72.1174 38.085 71.7434 38.085ZM71.7434 37.3965C72.0777 37.3965 72.3327 37.303 72.5084 37.116C72.6897 36.9233 72.7804 36.6513 72.7804 36.3V33.495C72.7804 33.1437 72.6897 32.8745 72.5084 32.6875C72.3327 32.4948 72.0777 32.3985 71.7434 32.3985C71.4147 32.3985 71.1597 32.4948 70.9784 32.6875C70.797 32.8745 70.7064 33.1437 70.7064 33.495V36.3C70.7064 36.6513 70.797 36.9233 70.9784 37.116C71.1597 37.303 71.4147 37.3965 71.7434 37.3965ZM75.072 38V31.795H77.0695C77.4549 31.795 77.7892 31.8715 78.0725 32.0245C78.3559 32.1718 78.574 32.3815 78.727 32.6535C78.8857 32.9255 78.965 33.2485 78.965 33.6225C78.965 33.9908 78.8857 34.3138 78.727 34.5915C78.574 34.8635 78.3559 35.076 78.0725 35.229C77.7892 35.3763 77.4549 35.45 77.0695 35.45H75.837V38H75.072ZM75.837 34.7615H77.0695C77.4039 34.7615 77.6702 34.6595 77.8685 34.4555C78.0725 34.2458 78.1745 33.9682 78.1745 33.6225C78.1745 33.2712 78.0725 32.9935 77.8685 32.7895C77.6702 32.5855 77.4039 32.4835 77.0695 32.4835H75.837V34.7615ZM81.9367 38.085C81.5627 38.085 81.2397 38.0142 80.9677 37.8725C80.7014 37.7308 80.4946 37.5268 80.3472 37.2605C80.2056 36.9885 80.1347 36.6683 80.1347 36.3V33.495C80.1347 33.121 80.2056 32.8008 80.3472 32.5345C80.4946 32.2682 80.7014 32.0642 80.9677 31.9225C81.2397 31.7808 81.5627 31.71 81.9367 31.71C82.3107 31.71 82.6309 31.7808 82.8972 31.9225C83.1692 32.0642 83.3761 32.2682 83.5177 32.5345C83.6651 32.8008 83.7387 33.1182 83.7387 33.4865V36.3C83.7387 36.6683 83.6651 36.9885 83.5177 37.2605C83.3761 37.5268 83.1692 37.7308 82.8972 37.8725C82.6309 38.0142 82.3107 38.085 81.9367 38.085ZM81.9367 37.3965C82.2711 37.3965 82.5261 37.303 82.7017 37.116C82.8831 36.9233 82.9737 36.6513 82.9737 36.3V33.495C82.9737 33.1437 82.8831 32.8745 82.7017 32.6875C82.5261 32.4948 82.2711 32.3985 81.9367 32.3985C81.6081 32.3985 81.3531 32.4948 81.1717 32.6875C80.9904 32.8745 80.8997 33.1437 80.8997 33.495V36.3C80.8997 36.6513 80.9904 36.9233 81.1717 37.116C81.3531 37.303 81.6081 37.3965 81.9367 37.3965ZM85.2739 38V31.795H86.0389V34.447H88.0279V31.795H88.7929V38H88.0279V35.144H86.0389V38H85.2739ZM90.3706 38V31.795H91.1356V34.447H93.1246V31.795H93.8896V38H93.1246V35.144H91.1356V38H90.3706ZM95.4418 38V31.795H96.1813V35.28C96.1813 35.484 96.1756 35.7022 96.1643 35.9345C96.1586 36.1612 96.1501 36.3793 96.1388 36.589C96.1274 36.793 96.1161 36.9658 96.1048 37.1075L97.9918 31.795H99.0118V38H98.2723V34.515C98.2723 34.3053 98.2751 34.0872 98.2808 33.8605C98.2921 33.6282 98.3034 33.41 98.3148 33.206C98.3318 32.9963 98.3459 32.8235 98.3573 32.6875L96.4618 38H95.4418ZM100.538 38V31.795H101.278V35.28C101.278 35.484 101.272 35.7022 101.261 35.9345C101.255 36.1612 101.247 36.3793 101.235 36.589C101.224 36.793 101.213 36.9658 101.201 37.1075L103.088 31.795H104.108V38H103.369V34.515C103.369 34.3053 103.372 34.0872 103.377 33.8605C103.389 33.6282 103.4 33.41 103.411 33.206C103.428 32.9963 103.443 32.8235 103.454 32.6875L101.558 38H100.538ZM102.323 31.1575C101.915 31.1575 101.587 31.0442 101.337 30.8175C101.088 30.5908 100.963 30.2933 100.963 29.925H101.567C101.567 30.146 101.635 30.3245 101.771 30.4605C101.907 30.5965 102.088 30.6645 102.315 30.6645C102.547 30.6645 102.731 30.5965 102.867 30.4605C103.009 30.3245 103.08 30.146 103.08 29.925H103.683C103.683 30.2933 103.559 30.5908 103.309 30.8175C103.06 31.0442 102.731 31.1575 102.323 31.1575Z" fill="white"/>
<path d="M59.782 48V41.795H60.547V44.4555H61.465L62.842 41.795H63.675L62.1365 44.7785L63.76 48H62.8845L61.4395 45.127H60.547V48H59.782ZM64.2667 48.0425V47.3285H64.4197C64.669 47.3285 64.8475 47.218 64.9552 46.997C65.0685 46.7703 65.128 46.385 65.1337 45.841L65.2017 41.795H68.3977V48H67.6327V42.492H65.9582L65.8987 45.841C65.8873 46.6003 65.7655 47.1585 65.5332 47.5155C65.3065 47.8668 64.9495 48.0425 64.4622 48.0425H64.2667ZM69.6184 48L71.2334 41.795H72.2619L73.8684 48H73.0949L72.6869 46.351H70.8084L70.4004 48H69.6184ZM70.9614 45.705H72.5254L72.0494 43.7925C71.9587 43.4298 71.8879 43.1267 71.8369 42.883C71.7859 42.6393 71.7547 42.4807 71.7434 42.407C71.732 42.4807 71.7009 42.6393 71.6499 42.883C71.5989 43.1267 71.528 43.427 71.4374 43.784L70.9614 45.705ZM76.874 48.085C76.5 48.085 76.1742 48.0142 75.8965 47.8725C75.6245 47.7308 75.412 47.5268 75.259 47.2605C75.1117 46.9885 75.038 46.6683 75.038 46.3V43.495C75.038 43.121 75.1117 42.8008 75.259 42.5345C75.412 42.2682 75.6245 42.0642 75.8965 41.9225C76.1742 41.7808 76.5 41.71 76.874 41.71C77.248 41.71 77.571 41.7837 77.843 41.931C78.115 42.0727 78.3247 42.2767 78.472 42.543C78.6194 42.8093 78.693 43.1267 78.693 43.495H77.928C77.928 43.1437 77.8345 42.8745 77.6475 42.6875C77.4662 42.4948 77.2084 42.3985 76.874 42.3985C76.5397 42.3985 76.2762 42.492 76.0835 42.679C75.8965 42.866 75.803 43.1352 75.803 43.4865V46.3C75.803 46.6513 75.8965 46.9233 76.0835 47.116C76.2762 47.303 76.5397 47.3965 76.874 47.3965C77.2084 47.3965 77.4662 47.303 77.6475 47.116C77.8345 46.9233 77.928 46.6513 77.928 46.3H78.693C78.693 46.6627 78.6194 46.98 78.472 47.252C78.3247 47.5183 78.115 47.7252 77.843 47.8725C77.571 48.0142 77.248 48.085 76.874 48.085ZM81.5542 48V42.4835H79.8542V41.7865H84.0192V42.4835H82.3192V48H81.5542ZM85.3334 48V41.795H88.9034V42.492H86.0899V44.413H88.6059V45.1015H86.0899V47.303H88.9034V48H85.3334ZM90.3621 48V41.795H92.3596C92.7449 41.795 93.0792 41.8715 93.3626 42.0245C93.6459 42.1718 93.8641 42.3815 94.0171 42.6535C94.1757 42.9255 94.2551 43.2485 94.2551 43.6225C94.2551 43.9908 94.1757 44.3138 94.0171 44.5915C93.8641 44.8635 93.6459 45.076 93.3626 45.229C93.0792 45.3763 92.7449 45.45 92.3596 45.45H91.1271V48H90.3621ZM91.1271 44.7615H92.3596C92.6939 44.7615 92.9602 44.6595 93.1586 44.4555C93.3626 44.2458 93.4646 43.9682 93.4646 43.6225C93.4646 43.2712 93.3626 42.9935 93.1586 42.7895C92.9602 42.5855 92.6939 42.4835 92.3596 42.4835H91.1271V44.7615Z" fill="white"/>
</svg>
