<svg width="236" height="60" viewBox="0 0 236 60" fill="none" xmlns="http://www.w3.org/2000/svg">
<path d="M24.624 31.0078H8.71875V38.4053H23.0566V45.5039H8.71875V60H0V23.9268H24.624V31.0078Z" fill="white"/>
<path fill-rule="evenodd" clip-rule="evenodd" d="M58.8916 60H49.5205L47.1426 52.4258H34.6855L32.3125 60H22.9414L35.1123 23.9268H46.7197L58.8916 60ZM36.7598 45.8037H45.0635L41.0488 33.0156H40.7666L36.7598 45.8037Z" fill="white"/>
<path fill-rule="evenodd" clip-rule="evenodd" d="M77.6758 23.9268C80.3765 23.9268 82.708 24.415 84.6689 25.3896C86.6414 26.3525 88.162 27.7377 89.2305 29.5459C90.299 31.3424 90.8339 33.4737 90.834 35.9395C90.834 38.4405 90.2872 40.5659 89.1953 42.3154C88.1112 44.0406 86.5755 45.3602 84.5889 46.2754L92.0664 60H82.5547L75.959 47.6523H71.4941V60H62.7754V23.9268H77.6758ZM71.4941 40.7832H75.791C77.1061 40.7832 78.2043 40.6129 79.085 40.2725C79.9773 39.9202 80.6524 39.3919 81.1104 38.6875C81.5683 37.9712 81.7979 37.055 81.7979 35.9395C81.7978 34.8241 81.5682 33.9028 81.1104 33.1748C80.6524 32.435 79.9774 31.8826 79.085 31.5186C78.1926 31.1429 77.0943 30.9551 75.791 30.9551H71.4941V40.7832Z" fill="white"/>
<path d="M107.866 45.8037H116.17L112.778 35H121.562L129.997 60H120.627L118.249 52.4258H105.792L103.419 60H94.0479L102.482 35H111.251L107.866 45.8037Z" fill="white"/>
<path fill-rule="evenodd" clip-rule="evenodd" d="M147.197 23.9268C150.873 23.9268 154.038 24.6494 156.691 26.0938C159.357 27.5263 161.411 29.5933 162.855 32.2939C164.3 34.9829 165.022 38.2005 165.022 41.9463C165.022 45.7037 164.3 48.9331 162.855 51.6338C161.423 54.3343 159.374 56.4073 156.709 57.8516C154.043 59.2841 150.878 60 147.215 60H133.881V23.9268H147.197ZM142.6 52.5674H146.88C148.9 52.5674 150.609 52.2269 152.006 51.5459C153.415 50.8532 154.477 49.7314 155.193 48.1816C155.921 46.62 156.286 44.5412 156.286 41.9463C156.286 39.3512 155.921 37.2844 155.193 35.7461C154.465 34.1962 153.391 33.0805 151.971 32.3994C150.562 31.7066 148.823 31.3604 146.757 31.3604H142.6V52.5674Z" fill="white"/>
<path fill-rule="evenodd" clip-rule="evenodd" d="M202.363 60H192.992L190.614 52.4258H178.157L175.784 60H166.414L178.585 23.9268H190.192L202.363 60ZM180.231 45.8037H188.535L184.521 33.0156H184.238L180.231 45.8037Z" fill="white"/>
<path d="M218.136 39.0225H218.453L226.08 23.9268H235.82L222.628 47.9521V60H213.962V47.9521L200.77 23.9268H210.51L218.136 39.0225Z" fill="white"/>
<path d="M111.915 9.41505C114.468 9.41525 116.538 11.485 116.538 14.0381C116.538 16.591 114.468 18.6609 111.915 18.6611C109.362 18.6611 107.292 16.5912 107.292 14.0381C107.292 11.4849 109.362 9.41505 111.915 9.41505Z" fill="#25F860"/>
<path fill-rule="evenodd" clip-rule="evenodd" d="M111.957 9.07526e-06C115.507 -0.00402693 118.927 1.33826 121.526 3.75587L121.546 3.73634L130.722 12.9121C130.892 13.0469 131.03 13.2187 131.125 13.4141C131.22 13.6096 131.269 13.8247 131.27 14.042C131.268 14.3945 131.139 14.7348 130.904 14.9981L130.911 15.0039L122.451 23.4639C119.873 26.3451 116.128 28.1602 111.957 28.1602C108.243 28.1601 104.868 26.7198 102.353 24.3711L102.289 24.4336L93.2002 15.3438C93.0002 15.2114 92.836 15.0317 92.7227 14.8203C92.6093 14.609 92.5495 14.3727 92.5498 14.1328C92.5498 13.7571 92.6967 13.4177 92.9307 13.1592L101.438 4.65138L101.472 4.68556C104.049 1.81031 107.791 8.71108e-06 111.957 9.07526e-06ZM102.415 14.0801C102.415 8.81079 106.688 4.53907 111.957 4.53907C117.226 4.53922 121.498 8.81088 121.498 14.0801C121.498 19.3491 117.226 23.62 111.957 23.6201C106.688 23.6201 102.415 19.3487 102.415 14.0801Z" fill="#25F860"/>
</svg>
