<svg width="32" height="32" viewBox="0 0 32 32" fill="none" xmlns="http://www.w3.org/2000/svg">
<path d="M16.8417 30.1265L23.5296 23.4386L23.4833 23.3922C25.2116 21.5412 26.2714 19.0576 26.2714 16.325C26.2714 13.2564 24.9363 10.5007 22.8163 8.60368L16.5915 2.37929L16.5867 2.38408C16.3929 2.21162 16.1428 2.11597 15.8834 2.11514C15.7235 2.11554 15.5658 2.152 15.4219 2.22181C15.2781 2.29163 15.1518 2.39299 15.0526 2.51835L8.3011 9.27024L8.31509 9.28422C6.53621 11.1971 5.54873 13.7133 5.55175 16.3254C5.55175 19.3905 6.88367 22.1434 8.99923 24.04L8.97445 24.0648L15.1601 30.2504C15.1836 30.2761 15.2083 30.3008 15.234 30.3243L15.2344 30.3247C15.4246 30.497 15.674 30.6045 15.9505 30.6045C16.127 30.6047 16.3008 30.5612 16.4563 30.4778C16.6118 30.3943 16.7442 30.2737 16.8417 30.1265ZM8.89133 16.3254C8.89133 12.4484 12.0343 9.3054 15.9114 9.3054C19.7884 9.3054 22.931 12.4484 22.931 16.3254C22.931 20.2025 19.788 23.3459 15.9114 23.3459C12.0343 23.3459 8.89133 20.2025 8.89133 16.3254Z" fill="#25F860"/>
<path d="M12.4791 16.3565C12.4791 18.2351 14.002 19.758 15.8806 19.758C17.7592 19.758 19.2821 18.2351 19.2821 16.3565C19.2821 14.4779 17.7592 12.955 15.8806 12.955C14.002 12.955 12.4791 14.4779 12.4791 16.3565Z" fill="#25F860"/>
</svg>
